<svg xmlns="http://www.w3.org/2000/svg" width="1320" height="720" viewBox="0 0 1320 720">
<rect width="100%" height="100%" fill="#ffffff"/>
<text x="660.0" y="40" text-anchor="middle" font-family="Helvetica,Arial,sans-serif" font-size="27" font-weight="700">Aggregate Workload Cycles</text>
<line x1="105" y1="82" x2="105" y2="580" stroke="#222" stroke-width="2"/>
<line x1="105" y1="580" x2="1275" y2="580" stroke="#222" stroke-width="2"/>
<line x1="99" y1="580.00" x2="1275" y2="580.00" stroke="#e7e7e7" stroke-width="1"/>
<text x="93" y="585.00" text-anchor="end" font-family="Helvetica,Arial,sans-serif" font-size="14">0</text>
<line x1="99" y1="480.40" x2="1275" y2="480.40" stroke="#e7e7e7" stroke-width="1"/>
<text x="93" y="485.40" text-anchor="end" font-family="Helvetica,Arial,sans-serif" font-size="14">1.1B</text>
<line x1="99" y1="380.80" x2="1275" y2="380.80" stroke="#e7e7e7" stroke-width="1"/>
<text x="93" y="385.80" text-anchor="end" font-family="Helvetica,Arial,sans-serif" font-size="14">2.2B</text>
<line x1="99" y1="281.20" x2="1275" y2="281.20" stroke="#e7e7e7" stroke-width="1"/>
<text x="93" y="286.20" text-anchor="end" font-family="Helvetica,Arial,sans-serif" font-size="14">3.3B</text>
<line x1="99" y1="181.60" x2="1275" y2="181.60" stroke="#e7e7e7" stroke-width="1"/>
<text x="93" y="186.60" text-anchor="end" font-family="Helvetica,Arial,sans-serif" font-size="14">4.4B</text>
<line x1="99" y1="82.00" x2="1275" y2="82.00" stroke="#e7e7e7" stroke-width="1"/>
<text x="93" y="87.00" text-anchor="end" font-family="Helvetica,Arial,sans-serif" font-size="14">5.5B</text>
<rect x="132.00" y="579.40" width="39.00" height="0.60" fill="#8a8f98" stroke="#222" stroke-width="1"/>
<text x="151.50" y="572.40" text-anchor="middle" font-family="Helvetica,Arial,sans-serif" font-size="11">6.7M</text>
<rect x="179.00" y="579.85" width="39.00" height="0.15" fill="#c9b6ff" stroke="#222" stroke-width="1"/>
<text x="198.50" y="572.85" text-anchor="middle" font-family="Helvetica,Arial,sans-serif" font-size="11">1.7M</text>
<rect x="226.00" y="579.95" width="39.00" height="0.05" fill="#8f63dd" stroke="#222" stroke-width="1"/>
<text x="245.50" y="572.95" text-anchor="middle" font-family="Helvetica,Arial,sans-serif" font-size="11">559.0K</text>
<rect x="273.00" y="579.98" width="39.00" height="0.02" fill="#4b238f" stroke="#222" stroke-width="1"/>
<text x="292.50" y="572.98" text-anchor="middle" font-family="Helvetica,Arial,sans-serif" font-size="11">214.9K</text>
<line x1="151.50" y1="579.40" x2="198.50" y2="579.85" stroke="#c9b6ff" stroke-width="2" stroke-dasharray="5 4"/>
<text x="175.00" y="559.40" text-anchor="middle" font-family="Helvetica,Arial,sans-serif" font-size="12" font-weight="700" fill="#c9b6ff">4.0x</text>
<line x1="151.50" y1="579.40" x2="245.50" y2="579.95" stroke="#8f63dd" stroke-width="2" stroke-dasharray="5 4"/>
<text x="198.50" y="541.40" text-anchor="middle" font-family="Helvetica,Arial,sans-serif" font-size="12" font-weight="700" fill="#8f63dd">11.9x</text>
<line x1="151.50" y1="579.40" x2="292.50" y2="579.98" stroke="#4b238f" stroke-width="2" stroke-dasharray="5 4"/>
<text x="222.00" y="523.40" text-anchor="middle" font-family="Helvetica,Arial,sans-serif" font-size="12" font-weight="700" fill="#4b238f">31.0x</text>
<text x="222.00" y="615" text-anchor="middle" font-family="Helvetica,Arial,sans-serif" font-size="15">Matmul</text>
<rect x="366.00" y="135.36" width="39.00" height="444.64" fill="#8a8f98" stroke="#222" stroke-width="1"/>
<text x="385.50" y="128.36" text-anchor="middle" font-family="Helvetica,Arial,sans-serif" font-size="11">4.9B</text>
<rect x="413.00" y="532.45" width="39.00" height="47.55" fill="#c9b6ff" stroke="#222" stroke-width="1"/>
<text x="432.50" y="525.45" text-anchor="middle" font-family="Helvetica,Arial,sans-serif" font-size="11">524.7M</text>
<rect x="460.00" y="569.83" width="39.00" height="10.17" fill="#8f63dd" stroke="#222" stroke-width="1"/>
<text x="479.50" y="562.83" text-anchor="middle" font-family="Helvetica,Arial,sans-serif" font-size="11">112.3M</text>
<rect x="507.00" y="577.55" width="39.00" height="2.45" fill="#4b238f" stroke="#222" stroke-width="1"/>
<text x="526.50" y="570.55" text-anchor="middle" font-family="Helvetica,Arial,sans-serif" font-size="11">27.0M</text>
<line x1="385.50" y1="135.36" x2="432.50" y2="532.45" stroke="#c9b6ff" stroke-width="2" stroke-dasharray="5 4"/>
<text x="409.00" y="115.36" text-anchor="middle" font-family="Helvetica,Arial,sans-serif" font-size="12" font-weight="700" fill="#c9b6ff">9.4x</text>
<line x1="385.50" y1="135.36" x2="479.50" y2="569.83" stroke="#8f63dd" stroke-width="2" stroke-dasharray="5 4"/>
<text x="432.50" y="97.36" text-anchor="middle" font-family="Helvetica,Arial,sans-serif" font-size="12" font-weight="700" fill="#8f63dd">43.7x</text>
<line x1="385.50" y1="135.36" x2="526.50" y2="577.55" stroke="#4b238f" stroke-width="2" stroke-dasharray="5 4"/>
<text x="456.00" y="79.36" text-anchor="middle" font-family="Helvetica,Arial,sans-serif" font-size="12" font-weight="700" fill="#4b238f">181.7x</text>
<text x="456.00" y="615" text-anchor="middle" font-family="Helvetica,Arial,sans-serif" font-size="15">Attention</text>
<rect x="600.00" y="372.33" width="39.00" height="207.67" fill="#8a8f98" stroke="#222" stroke-width="1"/>
<text x="619.50" y="365.33" text-anchor="middle" font-family="Helvetica,Arial,sans-serif" font-size="11">2.3B</text>
<rect x="647.00" y="554.09" width="39.00" height="25.91" fill="#c9b6ff" stroke="#222" stroke-width="1"/>
<text x="666.50" y="547.09" text-anchor="middle" font-family="Helvetica,Arial,sans-serif" font-size="11">285.9M</text>
<rect x="694.00" y="570.91" width="39.00" height="9.09" fill="#8f63dd" stroke="#222" stroke-width="1"/>
<text x="713.50" y="563.91" text-anchor="middle" font-family="Helvetica,Arial,sans-serif" font-size="11">100.3M</text>
<rect x="741.00" y="575.30" width="39.00" height="4.70" fill="#4b238f" stroke="#222" stroke-width="1"/>
<text x="760.50" y="568.30" text-anchor="middle" font-family="Helvetica,Arial,sans-serif" font-size="11">51.9M</text>
<line x1="619.50" y1="372.33" x2="666.50" y2="554.09" stroke="#c9b6ff" stroke-width="2" stroke-dasharray="5 4"/>
<text x="643.00" y="352.33" text-anchor="middle" font-family="Helvetica,Arial,sans-serif" font-size="12" font-weight="700" fill="#c9b6ff">8.0x</text>
<line x1="619.50" y1="372.33" x2="713.50" y2="570.91" stroke="#8f63dd" stroke-width="2" stroke-dasharray="5 4"/>
<text x="666.50" y="334.33" text-anchor="middle" font-family="Helvetica,Arial,sans-serif" font-size="12" font-weight="700" fill="#8f63dd">22.8x</text>
<line x1="619.50" y1="372.33" x2="760.50" y2="575.30" stroke="#4b238f" stroke-width="2" stroke-dasharray="5 4"/>
<text x="690.00" y="316.33" text-anchor="middle" font-family="Helvetica,Arial,sans-serif" font-size="12" font-weight="700" fill="#4b238f">44.2x</text>
<text x="690.00" y="615" text-anchor="middle" font-family="Helvetica,Arial,sans-serif" font-size="15">ViT Workload</text>
<rect x="834.00" y="531.48" width="39.00" height="48.52" fill="#8a8f98" stroke="#222" stroke-width="1"/>
<text x="853.50" y="524.48" text-anchor="middle" font-family="Helvetica,Arial,sans-serif" font-size="11">535.4M</text>
<rect x="881.00" y="573.40" width="39.00" height="6.60" fill="#c9b6ff" stroke="#222" stroke-width="1"/>
<text x="900.50" y="566.40" text-anchor="middle" font-family="Helvetica,Arial,sans-serif" font-size="11">72.8M</text>
<rect x="928.00" y="577.55" width="39.00" height="2.45" fill="#8f63dd" stroke="#222" stroke-width="1"/>
<text x="947.50" y="570.55" text-anchor="middle" font-family="Helvetica,Arial,sans-serif" font-size="11">27.1M</text>
<rect x="975.00" y="578.66" width="39.00" height="1.34" fill="#4b238f" stroke="#222" stroke-width="1"/>
<text x="994.50" y="571.66" text-anchor="middle" font-family="Helvetica,Arial,sans-serif" font-size="11">14.8M</text>
<line x1="853.50" y1="531.48" x2="900.50" y2="573.40" stroke="#c9b6ff" stroke-width="2" stroke-dasharray="5 4"/>
<text x="877.00" y="511.48" text-anchor="middle" font-family="Helvetica,Arial,sans-serif" font-size="12" font-weight="700" fill="#c9b6ff">7.4x</text>
<line x1="853.50" y1="531.48" x2="947.50" y2="577.55" stroke="#8f63dd" stroke-width="2" stroke-dasharray="5 4"/>
<text x="900.50" y="493.48" text-anchor="middle" font-family="Helvetica,Arial,sans-serif" font-size="12" font-weight="700" fill="#8f63dd">19.8x</text>
<line x1="853.50" y1="531.48" x2="994.50" y2="578.66" stroke="#4b238f" stroke-width="2" stroke-dasharray="5 4"/>
<text x="924.00" y="475.48" text-anchor="middle" font-family="Helvetica,Arial,sans-serif" font-size="12" font-weight="700" fill="#4b238f">36.2x</text>
<text x="924.00" y="615" text-anchor="middle" font-family="Helvetica,Arial,sans-serif" font-size="15">TinyBERT Workload</text>
<rect x="1068.00" y="421.21" width="39.00" height="158.79" fill="#8a8f98" stroke="#222" stroke-width="1"/>
<text x="1087.50" y="414.21" text-anchor="middle" font-family="Helvetica,Arial,sans-serif" font-size="11">1.8B</text>
<rect x="1115.00" y="551.48" width="39.00" height="28.52" fill="#c9b6ff" stroke="#222" stroke-width="1"/>
<text x="1134.50" y="544.48" text-anchor="middle" font-family="Helvetica,Arial,sans-serif" font-size="11">314.7M</text>
<rect x="1162.00" y="570.05" width="39.00" height="9.95" fill="#8f63dd" stroke="#222" stroke-width="1"/>
<text x="1181.50" y="563.05" text-anchor="middle" font-family="Helvetica,Arial,sans-serif" font-size="11">109.8M</text>
<rect x="1209.00" y="575.09" width="39.00" height="4.91" fill="#4b238f" stroke="#222" stroke-width="1"/>
<text x="1228.50" y="568.09" text-anchor="middle" font-family="Helvetica,Arial,sans-serif" font-size="11">54.2M</text>
<line x1="1087.50" y1="421.21" x2="1134.50" y2="551.48" stroke="#c9b6ff" stroke-width="2" stroke-dasharray="5 4"/>
<text x="1111.00" y="401.21" text-anchor="middle" font-family="Helvetica,Arial,sans-serif" font-size="12" font-weight="700" fill="#c9b6ff">5.6x</text>
<line x1="1087.50" y1="421.21" x2="1181.50" y2="570.05" stroke="#8f63dd" stroke-width="2" stroke-dasharray="5 4"/>
<text x="1134.50" y="383.21" text-anchor="middle" font-family="Helvetica,Arial,sans-serif" font-size="12" font-weight="700" fill="#8f63dd">16.0x</text>
<line x1="1087.50" y1="421.21" x2="1228.50" y2="575.09" stroke="#4b238f" stroke-width="2" stroke-dasharray="5 4"/>
<text x="1158.00" y="365.21" text-anchor="middle" font-family="Helvetica,Arial,sans-serif" font-size="12" font-weight="700" fill="#4b238f">32.3x</text>
<text x="1158.00" y="615" text-anchor="middle" font-family="Helvetica,Arial,sans-serif" font-size="15">GPT-2 Prefill Workload</text>
<text x="690.0" y="696" text-anchor="middle" font-family="Helvetica,Arial,sans-serif" font-size="18" font-weight="600">Workload</text>
<text x="28" y="331.0" transform="rotate(-90 28 331.0)" text-anchor="middle" font-family="Helvetica,Arial,sans-serif" font-size="18" font-weight="600">Aggregated Clock Cycles</text>
<rect x="1057" y="60" width="215" height="112" fill="#ffffff" stroke="#dddddd"/>
<rect x="1075" y="76" width="34" height="14" fill="#8a8f98" stroke="#222" stroke-width="1"/>
<text x="1120" y="89" font-family="Helvetica,Arial,sans-serif" font-size="14">RocketCore</text>
<rect x="1075" y="101" width="34" height="14" fill="#c9b6ff" stroke="#222" stroke-width="1"/>
<text x="1120" y="114" font-family="Helvetica,Arial,sans-serif" font-size="14">Atik 2x2</text>
<rect x="1075" y="126" width="34" height="14" fill="#8f63dd" stroke="#222" stroke-width="1"/>
<text x="1120" y="139" font-family="Helvetica,Arial,sans-serif" font-size="14">Atik 4x4</text>
<rect x="1075" y="151" width="34" height="14" fill="#4b238f" stroke="#222" stroke-width="1"/>
<text x="1120" y="164" font-family="Helvetica,Arial,sans-serif" font-size="14">Atik 8x8</text>
</svg>