<svg xmlns="http://www.w3.org/2000/svg" width="1000" height="620" viewBox="0 0 1000 620">
<rect width="100%" height="100%" fill="#ffffff"/>
<text x="500.0" y="38" text-anchor="middle" font-family="Helvetica,Arial,sans-serif" font-size="26" font-weight="700">TinyBERT Workload: Per-Case Speedup</text>
<line x1="90" y1="75" x2="90" y2="465" stroke="#222" stroke-width="2"/>
<line x1="90" y1="465" x2="960" y2="465" stroke="#222" stroke-width="2"/>
<line x1="84" y1="465.00" x2="960" y2="465.00" stroke="#e7e7e7" stroke-width="1"/>
<text x="78" y="470.00" text-anchor="end" font-family="Helvetica,Arial,sans-serif" font-size="14">0x</text>
<line x1="84" y1="387.00" x2="960" y2="387.00" stroke="#e7e7e7" stroke-width="1"/>
<text x="78" y="392.00" text-anchor="end" font-family="Helvetica,Arial,sans-serif" font-size="14">22x</text>
<line x1="84" y1="309.00" x2="960" y2="309.00" stroke="#e7e7e7" stroke-width="1"/>
<text x="78" y="314.00" text-anchor="end" font-family="Helvetica,Arial,sans-serif" font-size="14">43x</text>
<line x1="84" y1="231.00" x2="960" y2="231.00" stroke="#e7e7e7" stroke-width="1"/>
<text x="78" y="236.00" text-anchor="end" font-family="Helvetica,Arial,sans-serif" font-size="14">65x</text>
<line x1="84" y1="153.00" x2="960" y2="153.00" stroke="#e7e7e7" stroke-width="1"/>
<text x="78" y="158.00" text-anchor="end" font-family="Helvetica,Arial,sans-serif" font-size="14">86x</text>
<line x1="84" y1="75.00" x2="960" y2="75.00" stroke="#e7e7e7" stroke-width="1"/>
<text x="78" y="80.00" text-anchor="end" font-family="Helvetica,Arial,sans-serif" font-size="14">108x</text>
<line x1="90" y1="461.37" x2="960" y2="461.37" stroke="#8a8f98" stroke-width="2.5" stroke-dasharray="8 6"/>
<text x="956" y="453.37" text-anchor="end" font-family="Helvetica,Arial,sans-serif" font-size="13" fill="#8a8f98">RocketCore baseline 1x</text>
<polyline points="90.00,446.41 264.00,438.34 438.00,433.34 786.00,430.59" fill="none" stroke="#c9b6ff" stroke-width="3.5"/>
<circle cx="90.00" cy="446.41" r="4.5" fill="#c9b6ff" stroke="#ffffff" stroke-width="1.5"/>
<circle cx="264.00" cy="438.34" r="4.5" fill="#c9b6ff" stroke="#ffffff" stroke-width="1.5"/>
<circle cx="438.00" cy="433.34" r="4.5" fill="#c9b6ff" stroke="#ffffff" stroke-width="1.5"/>
<circle cx="786.00" cy="430.59" r="4.5" fill="#c9b6ff" stroke="#ffffff" stroke-width="1.5"/>
<polyline points="90.00,426.97 264.00,393.26" fill="none" stroke="#8f63dd" stroke-width="3.5"/>
<circle cx="90.00" cy="426.97" r="4.5" fill="#8f63dd" stroke="#ffffff" stroke-width="1.5"/>
<circle cx="264.00" cy="393.26" r="4.5" fill="#8f63dd" stroke="#ffffff" stroke-width="1.5"/>
<polyline points="264.00,334.07 438.00,270.76 612.00,365.81 960.00,116.79" fill="none" stroke="#4b238f" stroke-width="3.5"/>
<circle cx="264.00" cy="334.07" r="4.5" fill="#4b238f" stroke="#ffffff" stroke-width="1.5"/>
<circle cx="438.00" cy="270.76" r="4.5" fill="#4b238f" stroke="#ffffff" stroke-width="1.5"/>
<circle cx="612.00" cy="365.81" r="4.5" fill="#4b238f" stroke="#ffffff" stroke-width="1.5"/>
<circle cx="960.00" cy="116.79" r="4.5" fill="#4b238f" stroke="#ffffff" stroke-width="1.5"/>
<line x1="90.00" y1="465" x2="90.00" y2="471" stroke="#222" stroke-width="1.5"/>
<text x="90.00" y="489" transform="rotate(-25 90.00 489)" text-anchor="end" font-family="Helvetica,Arial,sans-serif" font-size="13">S32 D64 H4 C2</text>
<line x1="264.00" y1="465" x2="264.00" y2="471" stroke="#222" stroke-width="1.5"/>
<text x="264.00" y="489" transform="rotate(-25 264.00 489)" text-anchor="end" font-family="Helvetica,Arial,sans-serif" font-size="13">S64 D128 H4 C2</text>
<line x1="438.00" y1="465" x2="438.00" y2="471" stroke="#222" stroke-width="1.5"/>
<text x="438.00" y="489" transform="rotate(-25 438.00 489)" text-anchor="end" font-family="Helvetica,Arial,sans-serif" font-size="13">S128 D128 H4 C2</text>
<line x1="612.00" y1="465" x2="612.00" y2="471" stroke="#222" stroke-width="1.5"/>
<text x="612.00" y="489" transform="rotate(-25 612.00 489)" text-anchor="end" font-family="Helvetica,Arial,sans-serif" font-size="13">S64 D64 H2 C2</text>
<line x1="786.00" y1="465" x2="786.00" y2="471" stroke="#222" stroke-width="1.5"/>
<text x="786.00" y="489" transform="rotate(-25 786.00 489)" text-anchor="end" font-family="Helvetica,Arial,sans-serif" font-size="13">S256 D256 H4 C2</text>
<line x1="960.00" y1="465" x2="960.00" y2="471" stroke="#222" stroke-width="1.5"/>
<text x="960.00" y="489" transform="rotate(-25 960.00 489)" text-anchor="end" font-family="Helvetica,Arial,sans-serif" font-size="13">S128 D256 H2 C2</text>
<text x="525.0" y="598" text-anchor="middle" font-family="Helvetica,Arial,sans-serif" font-size="18" font-weight="600">Problem Size</text>
<text x="24" y="270.0" transform="rotate(-90 24 270.0)" text-anchor="middle" font-family="Helvetica,Arial,sans-serif" font-size="18" font-weight="600">Speedup vs RocketCore</text>
<rect x="717" y="44" width="235" height="112" fill="#ffffff" stroke="#dddddd"/>
<line x1="735" y1="68" x2="769" y2="68" stroke="#8a8f98" stroke-width="3" stroke-dasharray="7 5"/>
<text x="780" y="73" font-family="Helvetica,Arial,sans-serif" font-size="14">RocketCore 1x</text>
<line x1="735" y1="93" x2="769" y2="93" stroke="#c9b6ff" stroke-width="4"/>
<text x="780" y="98" font-family="Helvetica,Arial,sans-serif" font-size="14">Atik 2x2</text>
<line x1="735" y1="118" x2="769" y2="118" stroke="#8f63dd" stroke-width="4"/>
<text x="780" y="123" font-family="Helvetica,Arial,sans-serif" font-size="14">Atik 4x4</text>
<line x1="735" y1="143" x2="769" y2="143" stroke="#4b238f" stroke-width="4"/>
<text x="780" y="148" font-family="Helvetica,Arial,sans-serif" font-size="14">Atik 8x8</text>
</svg>